<?xml version="1.0" encoding="utf-8"?>
<!-- Svg Vector Icons : http://www.onlinewebfonts.com/icon -->
<!DOCTYPE svg PUBLIC "-//W3C//DTD SVG 1.1//EN" "http://www.w3.org/Graphics/SVG/1.1/DTD/svg11.dtd">
<svg fill="#CC3333" version="1.1" xmlns="http://www.w3.org/2000/svg" xmlns:xlink="http://www.w3.org/1999/xlink" x="0px" y="0px" viewBox="0 0 1000 1000" enable-background="new 0 0 1000 1000" xml:space="preserve">
<metadata> Svg Vector Icons : http://www.onlinewebfonts.com/icon </metadata>
<g><g><g><path d="M924.7,511.4V10H10v914.7h78.9l196.1-196h119C420.2,875.6,544.7,989.9,696,990c162.4-0.1,293.9-131.6,294-294C990,626,965.4,561.9,924.7,511.4z M403.9,663.3H257.7L75.3,845.7V75.3h784v376.3C812.6,420.3,756.5,402,696,402c-70,0-134.1,24.5-184.6,65.3H206v65.3h245.6C426,570.9,409.2,615.3,403.9,663.3z M696,920.8C571.8,920.5,471.4,820.1,471.1,696c0.3-124.2,100.7-224.6,224.9-224.9c124.1,0.3,224.5,100.7,224.8,224.9C920.5,820.1,820.1,920.5,696,920.8z"/><rect x="206" y="206" width="588" height="65.3"/><polygon points="794,336.7 206,336.7 206,402 696,402 794,402 "/><polygon points="663.3,696 598,630.7 532.7,696 663.3,826.7 859.3,630.7 794,565.3 "/></g></g><g></g><g></g><g></g><g></g><g></g><g></g><g></g><g></g><g></g><g></g><g></g><g></g><g></g><g></g><g></g></g>
</svg>
