<svg xmlns="http://www.w3.org/2000/svg" viewBox="0 0 230.53 70.77"><defs><style>.cls-1{fill:#fff;}</style></defs><g id="Layer_2" data-name="Layer 2"><g id="Layer_1-2" data-name="Layer 1"><path class="cls-1" d="M115,30.19c-.19,0-17.55,1.44-21,20.32H88.61V30H82V50.51H74.43V30l-3.53.24a24.09,24.09,0,0,0-21,20.32H44V30.42H37.4V50.53H7.34C10.22,38.16,20.68,36.9,22,36.8l-.47-6.61c-.21,0-21,1.74-21.57,26.23H118.56V30ZM67.81,50.51H56.66c2-8.41,7.43-11.68,11.15-12.94Zm44.13,0H100.78c2-8.41,7.44-11.68,11.16-12.94Z"/><rect class="cls-1" x="73.99" y="58.71" width="7.72" height="7.72"/><rect class="cls-1" x="82.5" y="58.71" width="7.72" height="7.72"/><rect class="cls-1" x="17.97" y="39.8" width="7.72" height="7.72"/><rect class="cls-1" x="26.48" y="39.8" width="7.72" height="7.72"/><rect class="cls-1" x="101.64" y="20.18" width="7.72" height="7.72"/><rect class="cls-1" x="110.15" y="20.18" width="7.72" height="7.72"/><path class="cls-1" d="M152.44,30V50.51h-7.57V30l-3.53.24c-.21,0-21,1.74-21.58,26.23H132V49.92h-4.7c2.08-8,7.36-11.12,11-12.35V56.42h20.8V30Z"/><rect class="cls-1" x="148.45" y="58.71" width="7.72" height="7.72"/></g><g id="Layer_2-2" data-name="Layer 2"><polygon class="cls-1" points="230.53 70.77 215.29 14.84 215.29 14.71 187.85 14.71 187.85 14.72 187.84 14.71 178.54 14.71 184.93 21.05 187.93 24.01 187.91 24.02 216.61 52.49 213.36 40.44 194.34 21.26 210.19 21.26 221.85 64.21 204.84 64.21 210.93 70.77 228.11 70.77 228.11 70.77 230.53 70.77"/><circle class="cls-1" cx="204.58" cy="17.21" r="1.23"/><circle class="cls-1" cx="204.58" cy="17.21" r="0.69"/><circle class="cls-1" cx="187.89" cy="17.21" r="1.23"/><circle class="cls-1" cx="187.89" cy="17.21" r="0.69"/><polygon class="cls-1" points="209.41 70.77 180.15 41.6 178.17 48.94 193.53 64.21 171.96 64.21 183.46 21.92 178.11 16.43 163.33 70.77 169.64 70.77 170.18 70.77 200.1 70.77 200.1 70.76 200.11 70.77 209.41 70.77"/><path class="cls-1" d="M204.19,17.28c0-.17-2-16.25-8.44-16.25h-.09c-6.46.15-7.29,16-7.3,16.21l-1,0c0-.7.89-17,8.31-17.19h.11c7.32,0,9.38,16.45,9.47,17.15Z"/></g></g></svg>