<svg xmlns="http://www.w3.org/2000/svg" xmlns:xlink="http://www.w3.org/1999/xlink" viewBox="0 0 140.55 196.29"><defs><style>.cls-1{fill:url(#linear-gradient);}.cls-2{fill:url(#linear-gradient-2);}.cls-3{fill:url(#linear-gradient-3);}.cls-4{fill:url(#linear-gradient-4);}.cls-5{fill:url(#linear-gradient-5);}.cls-6{fill:url(#linear-gradient-6);}.cls-7{fill:url(#linear-gradient-7);}.cls-8{fill:url(#linear-gradient-8);}.cls-9{fill:url(#linear-gradient-9);}.cls-10{fill:url(#linear-gradient-10);}.cls-11{fill:#58595b;}.cls-12{fill:#414042;}.cls-13{fill:url(#linear-gradient-11);}</style><linearGradient id="linear-gradient" y1="175.82" x2="104.45" y2="175.82" gradientUnits="userSpaceOnUse"><stop offset="0" stop-color="#be1e2d"/><stop offset="1" stop-color="#ed1c24"/></linearGradient><linearGradient id="linear-gradient-2" x1="65.19" y1="192.89" x2="71.99" y2="192.89" xlink:href="#linear-gradient"/><linearGradient id="linear-gradient-3" x1="72.69" y1="192.89" x2="79.49" y2="192.89" xlink:href="#linear-gradient"/><linearGradient id="linear-gradient-4" x1="15.83" y1="176.23" x2="22.63" y2="176.23" xlink:href="#linear-gradient"/><linearGradient id="linear-gradient-5" x1="23.33" y1="176.23" x2="30.13" y2="176.23" xlink:href="#linear-gradient"/><linearGradient id="linear-gradient-6" x1="89.56" y1="158.94" x2="96.36" y2="158.94" xlink:href="#linear-gradient"/><linearGradient id="linear-gradient-7" x1="97.05" y1="158.94" x2="103.86" y2="158.94" xlink:href="#linear-gradient"/><linearGradient id="linear-gradient-8" x1="105.52" y1="175.82" x2="140.14" y2="175.82" gradientUnits="userSpaceOnUse"><stop offset="0" stop-color="#58595b"/><stop offset="1" stop-color="#414042"/></linearGradient><linearGradient id="linear-gradient-9" x1="130.79" y1="192.89" x2="137.59" y2="192.89" xlink:href="#linear-gradient-8"/><linearGradient id="linear-gradient-10" x1="151.39" y1="126.68" x2="71.28" y2="61.41" xlink:href="#linear-gradient-8"/><linearGradient id="linear-gradient-11" x1="43.05" y1="151.64" x2="74.06" y2="62.62" xlink:href="#linear-gradient"/></defs><g id="Layer_2" data-name="Layer 2"><g id="Layer_1-2" data-name="Layer 1"><path class="cls-1" d="M101.34,164.37a21.2,21.2,0,0,0-18.51,17.9H78.07V164.19H72.24v18.08H65.58V164.16l-3.11.21A21.2,21.2,0,0,0,44,182.27H38.78v-17.7H33v17.72H6.46c2.55-10.9,11.76-12,13-12.1L19,164.37c-.19,0-18.5,1.53-19,23.11H104.45V164.16Zm-41.59,17.9H49.92c1.74-7.41,6.55-10.29,9.83-11.4Zm38.87,0H88.79c1.74-7.41,6.56-10.29,9.83-11.4Z"/><rect class="cls-2" x="65.19" y="189.49" width="6.8" height="6.8"/><rect class="cls-3" x="72.69" y="189.49" width="6.8" height="6.8"/><rect class="cls-4" x="15.83" y="172.83" width="6.8" height="6.8"/><rect class="cls-5" x="23.33" y="172.83" width="6.8" height="6.8"/><rect class="cls-6" x="89.56" y="155.54" width="6.8" height="6.8"/><rect class="cls-7" x="97.05" y="155.54" width="6.8" height="6.8"/><path class="cls-8" d="M134.31,164.19v18.08h-6.67V164.16l-3.11.21c-.19,0-18.5,1.53-19,23.11h10.76v-5.73h-4.15c1.83-7,6.48-9.8,9.68-10.88v16.61h18.33V164.19Z"/><rect class="cls-9" x="130.79" y="189.49" width="6.8" height="6.8"/></g><g id="Layer_2-2" data-name="Layer 2"><polygon class="cls-10" points="140.55 146.48 109 30.71 109 30.45 52.19 30.45 52.19 30.47 52.17 30.45 32.92 30.45 46.16 43.58 52.36 49.69 52.34 49.71 111.73 108.65 105.01 83.71 65.63 44.01 98.44 44.01 122.58 132.92 87.36 132.92 99.97 146.48 135.53 146.48 135.53 146.48 140.55 146.48"/><circle class="cls-11" cx="86.83" cy="35.63" r="2.54"/><circle class="cls-12" cx="86.83" cy="35.63" r="1.42"/><circle class="cls-11" cx="52.27" cy="35.63" r="2.54"/><circle class="cls-12" cx="52.27" cy="35.63" r="1.42"/><polygon class="cls-13" points="96.83 146.48 36.27 86.11 32.17 101.3 63.95 132.92 19.3 132.92 43.12 45.38 32.03 34.01 1.45 146.48 14.51 146.48 15.62 146.48 77.56 146.48 77.56 146.46 77.58 146.48 96.83 146.48"/><path class="cls-12" d="M86,35.76c0-.34-4.21-33.62-17.47-33.62h-.18C55,2.44,53.28,35.35,53.26,35.68l-2.14-.1C51.19,34.14,53,.34,68.33,0h.22C83.7,0,88,34.05,88.15,35.5Z"/></g></g></svg>