<?xml version="1.0" standalone="no"?>
<!DOCTYPE svg PUBLIC "-//W3C//DTD SVG 20010904//EN"
 "http://www.w3.org/TR/2001/REC-SVG-20010904/DTD/svg10.dtd">
<svg version="1.0" xmlns="http://www.w3.org/2000/svg"
 width="1500.000000pt" height="170.000000pt" viewBox="0 0 1500.000000 170.000000"
 preserveAspectRatio="xMidYMid meet">

<g transform="translate(0.000000,170.000000) scale(0.100000,-0.100000)"
fill="#cc3333" stroke="none">
<path d="M5349 1650 c-60 -10 -83 -25 -110 -74 -17 -30 -24 -59 -25 -106 l-1
-65 -48 -17 c-26 -9 -50 -20 -53 -23 -10 -10 18 -23 67 -31 43 -7 54 -8 92
-12 8 -1 37 -32 64 -69 27 -38 56 -74 63 -82 7 -8 21 -25 29 -38 9 -13 33 -33
54 -44 135 -68 291 58 251 203 -8 28 -117 189 -186 276 -28 34 -70 68 -99 79
-37 13 -37 13 -98 3z m104 -30 c16 0 68 -61 160 -188 94 -129 97 -134 97 -187
0 -46 -5 -59 -30 -89 -38 -42 -102 -69 -144 -60 -49 10 -87 45 -166 153 -69
95 -75 101 -109 101 -20 0 -43 5 -51 10 -13 9 -13 11 0 20 8 5 21 10 29 10 9
0 12 8 8 28 -3 16 -7 32 -8 38 -9 47 3 89 35 118 51 49 91 65 134 55 21 -5 40
-9 45 -9z"/>
<path d="M5374 1535 c-6 -16 -2 -47 11 -77 5 -12 2 -20 -9 -24 -24 -9 -46 14
-46 48 0 17 -4 27 -10 23 -14 -9 -12 -47 4 -67 7 -10 25 -18 39 -18 36 0 50
28 36 70 -8 21 -8 35 -2 41 15 15 45 -19 38 -42 -4 -10 -2 -19 3 -19 17 0 20
38 5 59 -17 24 -61 28 -69 6z"/>
<path d="M5445 1419 c-22 -17 -47 -34 -55 -39 -8 -5 -12 -12 -8 -16 4 -4 24 6
43 21 48 36 55 25 15 -25 -18 -23 -30 -44 -26 -47 3 -3 27 4 53 15 26 11 50
19 52 16 2 -2 -13 -20 -35 -39 -54 -48 -28 -44 34 5 33 26 49 46 45 55 -6 18
-6 18 -50 0 -59 -25 -71 -19 -35 18 32 33 42 67 20 67 -7 0 -31 -14 -53 -31z"/>
<path d="M5565 1294 c-16 -16 -15 -35 1 -78 8 -21 -22 -32 -42 -15 -10 8 -13
21 -9 38 5 21 4 23 -9 12 -9 -8 -16 -19 -16 -25 0 -21 40 -56 65 -56 29 0 38
24 26 66 -11 40 1 63 23 45 9 -8 16 -24 16 -37 0 -13 5 -24 10 -24 18 0 11 45
-10 68 -25 26 -33 27 -55 6z"/>
<path d="M10710 1612 c-49 -24 -89 -100 -90 -169 l0 -52 -42 -11 c-62 -16 -68
-18 -68 -29 0 -8 68 -29 120 -37 46 -7 63 -23 125 -120 73 -114 98 -139 158
-155 84 -22 184 33 207 116 21 75 10 110 -85 260 -94 149 -115 174 -163 199
-41 21 -118 20 -162 -2z m132 -12 c25 -7 50 -27 77 -59 23 -27 41 -52 41 -56
0 -4 19 -35 42 -68 67 -100 73 -110 91 -149 43 -93 -33 -208 -138 -208 -56 0
-120 42 -145 94 -3 6 -29 48 -59 94 -39 58 -60 82 -75 82 -12 1 -34 7 -51 14
l-30 12 30 15 c21 10 29 21 26 34 -7 41 0 110 14 132 16 24 99 72 125 72 8 1
32 -4 52 -9z"/>
<path d="M10789 1514 c-7 -9 -9 -30 -5 -59 7 -45 3 -51 -28 -39 -10 4 -16 18
-16 41 0 20 -4 32 -10 28 -5 -3 -10 -19 -10 -35 0 -40 39 -67 70 -50 19 10 21
17 16 55 -5 29 -3 46 5 51 17 10 40 -25 34 -50 -6 -21 -6 -21 9 -2 19 24 19
26 2 49 -18 23 -52 29 -67 11z"/>
<path d="M10840 1384 c-67 -42 -81 -67 -16 -29 26 15 49 26 51 23 2 -2 -12
-21 -32 -41 -19 -21 -33 -41 -30 -44 4 -3 27 0 53 6 25 7 48 10 51 8 2 -3 -12
-15 -31 -27 -20 -12 -36 -26 -36 -31 0 -14 7 -11 65 28 78 51 68 67 -30 48
l-40 -7 39 40 c21 22 35 45 32 51 -10 16 -15 14 -76 -25z"/>
<path d="M10956 1255 c-11 -11 -12 -23 -6 -46 10 -35 4 -59 -16 -59 -18 0 -36
34 -28 54 3 9 1 16 -5 16 -37 0 -12 -72 29 -85 36 -12 51 11 44 68 -6 45 -5
50 10 44 10 -4 20 -7 22 -7 2 0 4 -13 4 -30 0 -16 5 -30 10 -30 17 0 11 56 -8
73 -23 21 -36 21 -56 2z"/>
<path d="M589 1613 c-14 -2 -86 -39 -160 -81 -150 -87 -179 -117 -179 -188 0
-62 14 -89 61 -124 33 -23 52 -30 89 -30 l48 0 8 -47 c9 -48 29 -67 38 -36 2
10 12 44 21 75 l16 57 93 53 c104 59 133 91 141 158 12 93 -79 177 -176 163z
m105 -54 c49 -43 61 -90 37 -145 -17 -37 -32 -50 -125 -104 -58 -34 -106 -68
-106 -75 0 -8 -5 -26 -11 -42 l-11 -28 -9 26 c-9 23 -15 25 -58 25 -62 -1 -92
15 -120 68 -22 39 -23 46 -11 82 17 54 32 68 135 128 191 113 218 119 279 65z"/>
<path d="M577 1512 c-15 -16 -15 -21 -3 -38 10 -14 24 -18 51 -15 31 2 36 0
33 -16 -2 -12 -12 -18 -31 -18 -30 1 -36 -9 -11 -19 24 -9 52 2 65 25 16 31
-5 49 -57 49 -34 0 -42 3 -38 15 4 8 17 15 30 15 13 0 24 5 24 10 0 17 -46 11
-63 -8z"/>
<path d="M506 1471 c-4 -5 -2 -21 4 -36 20 -51 12 -62 -20 -26 -28 30 -51 38
-52 18 -1 -16 53 -107 64 -107 5 0 1 16 -11 36 -29 49 -26 53 13 15 38 -37 50
-30 36 20 -15 52 -12 57 12 17 12 -21 26 -38 31 -38 12 0 4 19 -28 69 -25 41
-39 49 -49 32z"/>
<path d="M356 1384 c-35 -34 -14 -59 46 -55 21 1 38 -2 38 -6 -1 -19 -19 -34
-37 -31 -11 1 -21 -1 -22 -7 -4 -21 47 -16 63 6 24 35 4 61 -42 57 -47 -4 -53
24 -7 32 25 5 27 7 12 13 -27 10 -34 9 -51 -9z"/>
<path d="M8075 1581 c-152 -95 -165 -105 -165 -122 0 -10 19 -50 43 -89 45
-75 74 -94 105 -68 9 8 54 37 100 63 104 61 117 77 95 119 -35 67 -87 136
-102 136 -9 -1 -43 -18 -76 -39z m50 -28 c-43 -104 -33 -95 -100 -87 -60 6
-80 13 -59 21 6 2 45 26 85 53 41 27 77 49 82 49 4 1 0 -16 -8 -36z m79 -40
c20 -32 36 -61 36 -65 0 -4 -24 -22 -52 -39 -29 -16 -78 -45 -108 -64 -30 -18
-58 -31 -61 -29 -6 4 -79 122 -79 129 0 2 36 1 79 -2 l79 -6 20 39 c10 22 22
51 26 67 3 15 10 27 15 27 5 0 26 -26 45 -57z"/>
<path d="M3307 1523 c-4 -3 -7 -69 -7 -145 0 -105 3 -139 12 -136 9 3 13 47
16 146 4 130 -1 156 -21 135z"/>
<path d="M3163 1414 c-15 -24 -15 -29 -2 -53 26 -46 109 -33 109 18 0 58 -75
83 -107 35z m74 -38 c-4 -9 -16 -16 -27 -16 -29 0 -38 30 -15 47 16 11 21 11
33 -1 8 -8 12 -22 9 -30z"/>
<path d="M3377 1422 c-20 -22 -22 -63 -5 -80 29 -29 98 -4 98 36 0 52 -61 80
-93 44z m67 -27 c7 -19 -20 -46 -39 -39 -15 6 -20 35 -8 47 12 12 41 7 47 -8z"/>
<path d="M14051 1414 c-17 -7 -31 -10 -31 -7 0 13 -72 -62 -86 -89 -29 -55
-11 -140 42 -198 l35 -39 -26 -40 c-15 -22 -25 -47 -23 -55 3 -14 6 -14 28 -1
14 8 39 22 55 30 17 9 41 22 54 30 17 9 32 10 55 3 117 -37 224 -59 256 -53
81 15 149 92 150 171 0 75 -59 155 -129 174 -20 5 -38 9 -41 9 -3 0 -18 5 -35
11 -16 7 -37 13 -45 15 -8 2 -44 11 -80 20 -106 29 -146 33 -179 19z m209 -54
c63 -18 134 -37 158 -43 47 -12 97 -60 108 -102 11 -45 -5 -109 -37 -148 -17
-21 -34 -35 -39 -32 -5 3 -12 0 -15 -6 -8 -11 -101 -10 -125 2 -8 4 -55 17
-104 29 -86 20 -90 20 -125 3 -50 -24 -64 -25 -56 -5 18 42 17 52 -6 63 -33
15 -69 74 -68 112 1 60 31 117 74 142 50 28 83 26 235 -15z"/>
<path d="M14062 1307 c-17 -20 -4 -50 29 -69 38 -22 39 -48 0 -48 -21 0 -32 6
-36 20 -7 23 -25 27 -25 7 0 -20 33 -47 58 -47 22 0 52 24 52 42 0 5 -13 22
-30 36 -16 15 -30 32 -30 39 0 22 19 24 40 3 26 -26 36 -20 20 9 -12 24 -61
29 -78 8z"/>
<path d="M14195 1278 c-6 -21 -35 -121 -35 -125 0 -2 4 -3 9 -3 5 0 14 20 20
45 15 60 27 57 25 -5 -2 -61 10 -72 34 -30 9 17 23 39 30 48 12 15 13 13 8
-13 -3 -16 -8 -40 -12 -52 -4 -14 -2 -23 4 -23 12 0 34 69 36 114 2 46 -20 41
-51 -11 l-28 -48 -3 58 c-2 42 -7 57 -18 57 -8 0 -16 -6 -19 -12z"/>
<path d="M14356 1224 c-10 -27 -7 -44 12 -51 27 -11 44 -32 38 -48 -8 -22 -41
-18 -59 8 -16 22 -16 22 -16 1 -1 -30 50 -51 84 -36 34 16 31 38 -10 75 -19
17 -35 34 -35 39 0 15 43 8 56 -9 7 -10 16 -15 20 -11 4 5 -1 17 -11 28 -22
24 -70 27 -79 4z"/>
<path d="M1462 1314 c-34 -47 -59 -91 -56 -98 8 -21 112 -89 127 -83 16 6 117
156 117 174 0 6 -12 20 -26 30 -14 10 -38 28 -54 41 -15 12 -32 22 -38 22 -5
0 -37 -38 -70 -86z m133 22 l44 -33 -40 -59 c-66 -95 -67 -96 -98 -79 -14 8
-37 23 -50 34 l-25 19 57 18 57 18 0 58 c0 32 3 58 6 58 3 0 25 -15 49 -34z
m-69 -22 c-1 -45 -3 -48 -40 -61 -22 -7 -41 -11 -44 -8 -6 6 69 115 79 115 4
0 6 -21 5 -46z"/>
<path d="M9506 1264 c-36 -69 -66 -128 -66 -130 0 -2 6 -4 13 -4 12 0 137 227
137 249 0 32 -25 -2 -84 -115z"/>
<path d="M9386 1344 c-34 -34 -9 -94 39 -94 30 0 55 25 55 55 0 30 -25 55 -55
55 -13 0 -31 -7 -39 -16z m68 -29 c7 -19 -20 -46 -39 -39 -21 8 -26 32 -9 48
16 17 40 12 48 -9z"/>
<path d="M12396 1325 c-98 -23 -120 -36 -111 -65 2 -8 9 -43 16 -78 13 -68 31
-96 58 -88 9 3 61 15 116 26 55 12 106 28 114 35 11 11 12 24 1 82 -20 105
-24 113 -62 112 -18 -1 -78 -12 -132 -24z m124 -4 c0 -5 -17 -27 -37 -50 l-38
-42 -52 22 c-29 12 -53 25 -53 30 0 4 37 16 83 27 101 24 97 24 97 13z m46
-81 c8 -34 12 -65 9 -69 -6 -12 -211 -55 -228 -48 -14 5 -43 124 -33 134 3 3
34 -8 70 -25 l66 -31 47 54 c25 30 48 53 50 51 3 -2 11 -32 19 -66z"/>
<path d="M9570 1250 c-36 -36 -16 -92 33 -92 54 0 78 46 45 87 -24 30 -51 32
-78 5z m54 -16 c23 -9 20 -41 -4 -49 -25 -8 -40 1 -40 24 0 29 14 37 44 25z"/>
<path d="M4315 1081 c-152 -95 -165 -105 -165 -122 0 -10 19 -50 43 -89 45
-75 74 -94 105 -68 9 8 54 37 100 63 104 61 117 77 95 119 -35 67 -87 136
-102 136 -9 -1 -43 -18 -76 -39z m50 -28 c-43 -104 -33 -95 -100 -87 -60 6
-80 13 -59 21 6 2 45 26 85 53 41 27 77 49 82 49 4 1 0 -16 -8 -36z m79 -40
c20 -32 36 -61 36 -65 0 -4 -24 -22 -52 -39 -29 -16 -78 -45 -108 -64 -30 -18
-58 -31 -61 -29 -6 4 -79 122 -79 129 0 2 36 1 79 -2 l79 -6 20 39 c10 22 22
51 26 67 3 15 10 27 15 27 5 0 26 -26 45 -57z"/>
<path d="M6395 1000 c-35 -38 6 -99 57 -87 31 8 50 46 35 73 -22 40 -63 46
-92 14z m72 -26 c3 -8 -2 -23 -11 -32 -15 -15 -17 -15 -32 0 -21 21 -11 48 16
48 11 0 23 -7 27 -16z"/>
<path d="M13406 844 c-36 -69 -66 -128 -66 -130 0 -2 6 -4 13 -4 12 0 137 227
137 249 0 32 -25 -2 -84 -115z"/>
<path d="M6480 885 c-58 -30 -111 -54 -117 -54 -7 -1 -13 -5 -13 -10 0 -17 21
-23 36 -10 9 7 39 22 67 34 116 49 157 71 157 83 0 20 -19 13 -130 -43z"/>
<path d="M13286 924 c-34 -34 -9 -94 39 -94 30 0 55 25 55 55 0 30 -25 55 -55
55 -13 0 -31 -7 -39 -16z m68 -29 c7 -19 -20 -46 -39 -39 -21 8 -26 32 -9 48
16 17 40 12 48 -9z"/>
<path d="M9000 906 c-20 -8 -63 -26 -95 -41 -33 -15 -89 -40 -123 -56 -116
-53 -150 -94 -154 -188 -2 -47 1 -65 18 -88 32 -43 94 -80 145 -87 l46 -6 7
-52 c4 -29 10 -56 12 -60 9 -14 34 12 34 36 0 11 7 30 15 40 8 11 15 28 15 38
0 18 28 58 41 58 4 0 54 22 112 50 113 52 149 86 168 154 12 42 -3 108 -32
145 -47 59 -138 84 -209 57z m145 -35 c35 -19 75 -92 75 -136 0 -32 -31 -91
-59 -112 -17 -13 -32 -21 -159 -79 -75 -34 -84 -42 -102 -81 -21 -48 -40 -56
-40 -18 0 23 -4 25 -42 26 -78 1 -110 19 -141 79 -22 44 -27 63 -22 94 10 67
38 93 164 153 216 102 258 112 326 74z"/>
<path d="M9032 804 c-42 -29 -19 -65 45 -67 31 -2 38 -6 38 -22 0 -16 -7 -20
-32 -20 -34 0 -44 -11 -18 -21 43 -17 95 29 75 66 -8 16 -21 20 -60 20 -28 0
-50 4 -50 9 0 16 29 33 46 27 22 -8 40 4 23 15 -21 13 -42 11 -67 -7z"/>
<path d="M8944 715 c7 -64 -3 -70 -33 -20 -13 22 -28 35 -41 35 -25 0 -25 0 7
-74 31 -71 31 -71 39 -63 3 3 -3 26 -15 51 -25 57 -15 59 28 6 18 -22 36 -38
40 -35 5 2 5 26 0 51 -5 26 -7 49 -5 52 3 2 14 -14 26 -37 26 -51 44 -54 23
-3 -29 69 -43 92 -60 92 -13 0 -15 -8 -9 -55z"/>
<path d="M8750 670 c-11 -11 -20 -24 -20 -30 0 -15 36 -30 74 -30 19 0 38 -5
42 -12 11 -18 -27 -39 -61 -33 -28 6 -29 5 -11 -10 25 -19 36 -19 64 1 45 31
18 77 -46 78 -49 1 -52 30 -4 34 18 2 30 8 27 13 -10 16 -44 10 -65 -11z"/>
<path d="M13470 830 c-36 -36 -16 -92 33 -92 54 0 78 46 45 87 -24 30 -51 32
-78 5z m54 -16 c23 -9 20 -41 -4 -49 -25 -8 -40 1 -40 24 0 29 14 37 44 25z"/>
<path d="M6498 826 c-33 -17 -33 -76 1 -92 48 -24 98 26 72 74 -13 25 -43 33
-73 18z m52 -41 c0 -31 -26 -43 -47 -22 -13 13 -14 19 -3 31 21 26 50 20 50
-9z"/>
<path d="M2188 793 c-17 -19 -78 -209 -78 -241 0 -10 8 -26 18 -34 19 -16 316
-108 350 -108 30 0 45 28 82 149 24 78 29 109 22 125 -8 17 -45 33 -180 74
-93 29 -176 52 -184 52 -8 0 -22 -8 -30 -17z m232 -80 l115 -36 -85 -28 c-46
-16 -87 -29 -91 -29 -4 0 -31 32 -59 71 -61 84 -71 82 120 22z m-146 -48 c32
-47 64 -85 71 -85 6 0 51 13 100 30 49 16 90 28 93 26 5 -5 -47 -178 -56 -188
-8 -7 -321 86 -332 99 -8 9 49 203 59 203 3 -1 33 -39 65 -85z"/>
<path d="M14724 681 c-34 -21 -64 -43 -67 -48 -7 -11 85 -179 112 -206 18 -18
20 -18 62 3 58 30 109 68 109 83 -1 7 -26 55 -58 107 -38 63 -64 96 -77 98
-11 1 -48 -15 -81 -37z m72 -3 c-3 -7 -7 -38 -10 -69 l-6 -57 55 -22 c31 -12
58 -26 60 -30 6 -10 -96 -70 -107 -64 -4 3 -27 37 -50 77 -23 40 -48 82 -55
93 -13 21 -11 24 39 53 57 33 80 39 74 19z m69 -74 c25 -42 45 -78 43 -79 -2
-2 -27 8 -57 21 -46 21 -53 27 -47 46 3 13 6 38 6 56 0 17 2 32 4 32 3 0 25
-34 51 -76z"/>
<path d="M11346 494 c-36 -69 -66 -128 -66 -130 0 -2 6 -4 13 -4 12 0 137 227
137 249 0 32 -25 -2 -84 -115z"/>
<path d="M11226 574 c-34 -34 -9 -94 39 -94 30 0 55 25 55 55 0 30 -25 55 -55
55 -13 0 -31 -7 -39 -16z m68 -29 c7 -19 -20 -46 -39 -39 -21 8 -26 32 -9 48
16 17 40 12 48 -9z"/>
<path d="M1078 537 c-23 -23 -189 -353 -181 -361 19 -19 40 10 122 170 62 121
88 181 83 191 -8 13 -11 13 -24 0z"/>
<path d="M3322 520 c-50 -11 -107 -54 -127 -95 -22 -48 -14 -125 21 -177 13
-21 24 -41 24 -46 0 -4 -16 -23 -35 -42 -19 -19 -35 -40 -35 -48 0 -15 4 -14
113 23 l67 23 41 -20 c200 -96 248 -107 318 -67 59 33 86 82 86 154 0 100 -22
123 -190 204 -201 97 -222 104 -283 91z m160 -61 c106 -46 226 -106 247 -123
25 -20 52 -93 45 -123 -13 -56 -48 -106 -87 -123 -51 -23 -91 -18 -174 20 -65
31 -118 53 -118 50 0 -1 -13 5 -28 13 -25 13 -32 13 -55 1 -28 -15 -62 -19
-62 -7 0 3 8 15 17 25 15 17 15 20 -8 46 -33 36 -60 97 -53 119 14 42 43 100
56 110 19 15 69 31 100 32 16 1 70 -17 120 -40z"/>
<path d="M3343 419 c-30 -11 -29 -41 2 -70 13 -13 25 -32 25 -41 0 -28 -36
-22 -59 10 -20 26 -20 26 -21 5 0 -33 40 -56 74 -44 34 14 34 46 -1 83 -20 21
-24 31 -16 39 16 16 41 4 53 -23 9 -21 10 -21 7 6 -2 33 -30 48 -64 35z"/>
<path d="M3462 367 c-16 -19 -55 -117 -50 -123 3 -2 16 17 29 43 25 53 35 41
20 -25 -5 -23 -6 -44 -1 -47 4 -2 22 14 40 37 36 45 51 38 26 -11 -17 -33 -20
-51 -8 -51 4 0 20 30 36 66 24 55 27 68 15 75 -10 7 -24 -2 -52 -33 l-38 -43
6 56 c7 57 -3 81 -23 56z"/>
<path d="M3612 288 c-19 -19 -14 -39 14 -69 16 -17 24 -34 21 -43 -9 -23 -25
-20 -52 10 -24 26 -25 26 -25 6 0 -32 41 -55 74 -43 33 13 33 39 1 77 -25 29
-33 54 -16 54 21 0 41 -13 41 -26 0 -8 7 -14 15 -14 21 0 3 35 -25 50 -24 13
-33 13 -48 -2z"/>
<path d="M830 493 c-34 -23 -40 -33 -40 -69 0 -42 27 -73 70 -80 87 -14 128
111 49 151 -36 19 -49 19 -79 -2z m64 -36 c22 -16 18 -55 -6 -71 -40 -24 -80
44 -42 71 10 7 21 13 24 13 3 0 14 -6 24 -13z"/>
<path d="M5177 478 c-59 -79 -117 -179 -117 -202 0 -30 36 -56 285 -207 48
-29 69 -16 132 84 89 140 90 148 15 195 -26 16 -95 59 -153 95 -58 37 -113 67
-122 67 -9 0 -27 -15 -40 -32z m250 -131 c46 -28 83 -57 83 -63 0 -20 -108
-185 -114 -175 -4 5 -22 52 -40 103 l-34 93 -106 -3 c-58 -1 -106 0 -106 4 0
9 78 134 97 156 14 16 20 14 77 -23 33 -21 98 -63 143 -92z m-100 -155 c17
-45 27 -82 22 -82 -5 0 -62 35 -126 78 l-118 77 85 6 c47 3 89 4 95 4 5 -1 24
-38 42 -83z"/>
<path d="M11410 480 c-36 -36 -16 -92 33 -92 54 0 78 46 45 87 -24 30 -51 32
-78 5z m54 -16 c23 -9 20 -41 -4 -49 -25 -8 -40 1 -40 24 0 29 14 37 44 25z"/>
<path d="M10259 463 c-24 -7 -54 -15 -67 -17 -25 -5 -26 -6 -144 -41 -59 -18
-91 -33 -99 -46 -8 -15 -3 -45 22 -132 33 -112 50 -147 76 -147 24 0 344 98
359 111 19 16 18 24 -17 147 -43 146 -48 150 -130 125z m-10 -89 c-24 -30 -49
-62 -56 -71 -10 -13 -20 -12 -80 11 -38 14 -74 26 -82 26 -7 0 -11 5 -9 12 4
12 188 71 188 61 0 -3 7 0 15 7 8 7 15 10 15 7 0 -4 10 -3 23 2 12 5 24 7 26
5 2 -2 -16 -29 -40 -60z m107 -55 c24 -84 30 -124 17 -116 -5 2 -78 -17 -163
-43 -113 -34 -158 -44 -166 -36 -6 6 -21 47 -34 91 -12 44 -25 86 -27 93 -8
19 15 15 116 -24 52 -19 97 -31 101 -27 4 4 33 41 65 81 32 40 60 71 62 68 3
-3 16 -42 29 -87z"/>
<path d="M12532 428 c-36 -25 -65 -68 -76 -111 -10 -41 27 -113 76 -146 40
-27 43 -39 22 -109 -10 -34 7 -27 66 29 l54 50 105 -5 c135 -6 156 -1 202 45
51 51 61 109 29 173 -38 79 -63 88 -268 93 -171 3 -178 3 -210 -19z m337 -7
c57 -6 67 -11 97 -44 30 -33 34 -43 34 -93 0 -52 -3 -59 -36 -90 -39 -37 -38
-37 -204 -34 -86 1 -97 -1 -115 -20 -11 -12 -28 -26 -39 -32 -17 -9 -18 -7
-13 21 6 28 3 32 -26 45 -58 24 -81 59 -80 120 1 59 16 88 60 118 24 16 45 18
143 17 63 -1 144 -5 179 -8z"/>
<path d="M12571 341 c-12 -21 7 -44 47 -55 12 -4 22 -13 22 -21 0 -21 -31 -27
-52 -9 -22 21 -36 11 -18 -11 8 -10 25 -15 44 -13 26 2 32 8 34 31 3 24 -2 30
-27 40 -31 12 -40 30 -20 43 6 3 16 1 22 -5 16 -16 27 -14 21 4 -9 22 -61 19
-73 -4z"/>
<path d="M12692 293 l1 -68 7 50 c6 49 6 50 18 22 7 -16 12 -37 12 -47 0 -35
18 -30 30 7 19 58 30 62 32 12 l1 -44 6 45 c12 92 -11 119 -37 42 -14 -44 -32
-48 -32 -7 0 34 -10 55 -26 55 -11 0 -14 -16 -12 -67z"/>
<path d="M12847 343 c-18 -17 -5 -44 28 -60 19 -9 35 -21 35 -25 0 -16 -32
-21 -51 -9 -15 9 -19 8 -19 -3 0 -27 60 -36 80 -11 17 21 4 49 -30 62 -16 6
-30 18 -30 27 0 18 25 22 35 6 3 -5 13 -10 22 -10 13 0 13 3 3 15 -13 15 -61
21 -73 8z"/>
<path d="M7926 274 c-36 -69 -66 -128 -66 -130 0 -2 6 -4 13 -4 12 0 137 227
137 249 0 32 -25 -2 -84 -115z"/>
<path d="M1075 345 c-51 -51 -17 -135 55 -135 47 0 80 35 80 86 0 66 -87 98
-135 49z m85 -29 c6 -8 10 -25 8 -38 -6 -42 -78 -32 -78 11 0 37 46 55 70 27z"/>
<path d="M7806 354 c-34 -34 -9 -94 39 -94 30 0 55 25 55 55 0 30 -25 55 -55
55 -13 0 -31 -7 -39 -16z m68 -29 c7 -19 -20 -46 -39 -39 -21 8 -26 32 -9 48
16 17 40 12 48 -9z"/>
<path d="M14237 353 c-4 -3 -7 -69 -7 -145 0 -105 3 -139 12 -136 9 3 13 47
16 146 4 130 -1 156 -21 135z"/>
<path d="M7990 260 c-36 -36 -16 -92 33 -92 54 0 78 46 45 87 -24 30 -51 32
-78 5z m54 -16 c23 -9 20 -41 -4 -49 -25 -8 -40 1 -40 24 0 29 14 37 44 25z"/>
<path d="M14093 244 c-15 -24 -15 -29 -2 -53 26 -46 109 -33 109 18 0 58 -75
83 -107 35z m74 -38 c-4 -9 -16 -16 -27 -16 -29 0 -38 30 -15 47 16 11 21 11
33 -1 8 -8 12 -22 9 -30z"/>
<path d="M14307 252 c-20 -22 -22 -63 -5 -80 29 -29 98 -4 98 36 0 52 -61 80
-93 44z m67 -27 c7 -19 -20 -46 -39 -39 -15 6 -20 35 -8 47 12 12 41 7 47 -8z"/>
</g>
</svg>
