<?xml version="1.0" encoding="utf-8"?>
<!-- Svg Vector Icons : http://www.onlinewebfonts.com/icon -->
<!DOCTYPE svg PUBLIC "-//W3C//DTD SVG 1.1//EN" "http://www.w3.org/Graphics/SVG/1.1/DTD/svg11.dtd">
<svg fill="#cc3333" version="1.1" xmlns="http://www.w3.org/2000/svg" xmlns:xlink="http://www.w3.org/1999/xlink" x="0px" y="0px" viewBox="0 0 1000 1000" enable-background="new 0 0 1000 1000" xml:space="preserve">
<metadata> Svg Vector Icons : http://www.onlinewebfonts.com/icon </metadata>
<g><path d="M982.6,989.7c-9.9,10.7-25.9,10.7-35.8,0L784.9,814.3c13.4-11.2,26.1-23.3,37.9-36.7l159.9,173.2C992.5,961.6,992.5,979,982.6,989.7z M635.8,843.6c-130.5,0-236.3-105.8-236.3-236.3c0-130.6,105.8-236.3,236.3-236.3s236.3,105.8,236.3,236.3C872.1,737.7,766.3,843.6,635.8,843.6z M635.8,437c-94,0-170.1,76.2-170.1,170.2c0,94,76.2,170.2,170.2,170.2c94,0,170.2-76.2,170.2-170.2C806,513.3,729.9,437,635.8,437z M163.2,768.5v-29.4H378c6.3,10.3,14,20.1,22.8,29.4H163.2z M163.2,641v-33.4h194.4c-0.5,5.5-1.1,11.1-1.1,16.7c0,5.6,0.6,11.2,1.1,16.7H163.2z M163.2,350.6h214.8V380H163.2V350.6z M378.1,511.5L378.1,511.5H163.2v-29.4h214.8V511.5L378.1,511.5z M745.7,326.7H637.6c0,0,0,0-0.1,0c0,0,0,0-0.1,0h-64.8c-47.8,0-86.5-38.7-86.5-86.5V65H116.1c-38,5-43.3,39-43.3,62.9v761.5c0,23.9,19.4,43.3,43.3,43.3h586.3c23.9,0,30.5-19.4,30.5-43.3l1-21.7c-1.2-2,20.3-25.2,42.7-18.7l19.7,17.5v43c-6.5,49.3-46.2,88.2-94,88.2H96.5c-47.8,0-86.5-38.7-86.5-86.5V88.8C10,41,48.7,2.3,96.5,2.3c0,0,166.3,0,324.6,0c3.8,0,7.8,0,11.6,0c7.7,0,14.9,0,22.4,0h60.5l267.1,287.6l8.5,7.7l7.7,7.7v9.6l-9.8,55.3v1.3c-13.7-8.8-28.1-16.6-43.3-22.9L745.7,326.7L745.7,326.7z M544.2,125.3v109.3c0,16.5,14.9,29.7,33.3,29.7H690L544.2,125.3z"/></g>
</svg>
