<?xml version="1.0" encoding="iso-8859-1"?>
<!-- Generator: Adobe Illustrator 19.0.0, SVG Export Plug-In . SVG Version: 6.00 Build 0)  -->
<svg version="1.1" id="Capa_1" xmlns="http://www.w3.org/2000/svg" xmlns:xlink="http://www.w3.org/1999/xlink" x="0px" y="0px"
	 viewBox="0 0 512 512" style="enable-background:new 0 0 512 512;" xml:space="preserve">
<linearGradient id="SVGID_1_" gradientUnits="userSpaceOnUse" x1="0.0164" y1="257.868" x2="512.1871" y2="257.868" gradientTransform="matrix(0.9997 0 0 -0.9997 -0.0164 513.7817)">
	<stop  offset="0" style="stop-color:#ebbdbd"/>
	<stop  offset="0.021" style="stop-color:#e99d9b"/>
	<stop  offset="0.293" style="stop-color:#e27c79"/>
	<stop  offset="0.650" style="stop-color:#d95a56"/>
	<stop  offset="0.796" style="stop-color:#cc3333"/>
	<stop  offset="1" style="stop-color:#cc3333"/>
</linearGradient>
<path style="fill:url(#SVGID_1_);" d="M511.983,117.639c-0.462,23.2-10.381,45.743-27.928,63.475
	c-7.766,7.847-20.424,7.915-28.275,0.148c-7.848-7.767-7.914-20.426-0.147-28.275c18.187-18.379,25.127-48.464-0.37-74.244
	c-21.51-21.748-49.477-22.181-71.305-1.123L155.546,309.845c-3.551,3.588-10.573,12.981-0.049,23.623
	c3.626,3.666,7.468,5.524,11.419,5.523c4.016,0,8.161-1.958,11.676-5.514l158.004-161.421c7.724-7.891,20.384-8.026,28.274-0.302
	c7.891,7.724,8.026,20.382,0.303,28.274L207.099,361.52c-11.151,11.281-25.396,17.457-40.177,17.459h-0.007
	c-14.604,0-28.755-6.176-39.848-17.392c-22.876-23.13-22.869-56.701,0.014-79.825L355.786,49.239l0.166-0.161
	c17.618-17.102,39.736-26.681,62.278-26.973c0.369-0.004,0.738-0.007,1.106-0.007c23.653,0,45.884,9.848,64.357,28.526
	C502.419,69.559,512.466,93.358,511.983,117.639z M420.9,217.665c-7.931-7.68-20.59-7.477-28.271,0.456L195.287,421.936
	c-17.865,18.04-40.467,27.976-63.656,27.979h-0.012c-23.18,0-45.172-9.846-63.594-28.472
	c-43.121-43.599-31.082-94.804-0.012-126.229l197.04-196.996c7.809-7.807,7.81-20.466,0.003-28.275
	c-7.806-7.809-20.465-7.81-28.275-0.003L39.703,266.974l-0.075,0.076c-24.714,24.974-38.772,56.464-39.589,88.671
	c-0.871,34.345,12.808,66.794,39.556,93.84c25.729,26.015,58.408,40.342,92.024,40.341h0.018
	c33.984-0.005,66.713-14.184,92.157-39.925l197.562-204.04C429.037,238.003,428.833,225.346,420.9,217.665z"/>
<g>
</g>
<g>
</g>
<g>
</g>
<g>
</g>
<g>
</g>
<g>
</g>
<g>
</g>
<g>
</g>
<g>
</g>
<g>
</g>
<g>
</g>
<g>
</g>
<g>
</g>
<g>
</g>
<g>
</g>
</svg>
