<?xml version="1.0" encoding="iso-8859-1"?>
<!-- Generator: Adobe Illustrator 19.0.0, SVG Export Plug-In . SVG Version: 6.00 Build 0)  -->
<svg version="1.1" id="Capa_1" xmlns="http://www.w3.org/2000/svg" xmlns:xlink="http://www.w3.org/1999/xlink" x="0px" y="0px"
	 viewBox="0 0 512 512" style="enable-background:new 0 0 512 512;" xml:space="preserve">
<linearGradient id="SVGID_1_" gradientUnits="userSpaceOnUse" x1="0.0117" y1="257.9059" x2="512.1337" y2="257.9059" gradientTransform="matrix(0.9998 0 0 -0.9998 -0.0117 513.8445)">
	<stop  offset="0" style="stop-color:#ebbdbd"/>
	<stop  offset="0.021" style="stop-color:#e99d9b"/>
	<stop  offset="0.293" style="stop-color:#e27c79"/>
	<stop  offset="0.650" style="stop-color:#d95a56"/>
	<stop  offset="0.796" style="stop-color:#cc3333"/>
	<stop  offset="1" style="stop-color:#cc3333"/>
</linearGradient>
<path style="fill:url(#SVGID_1_);" d="M492.005,365.974c11.043,0,19.995-8.952,19.995-19.995v-65.095
	c0-36.323-29.551-65.874-65.874-65.874h-30.225v-37.322c0-19.487-7.096-38.27-19.982-52.887l-64.304-72.95
	c-29.013-32.913-70.816-51.79-114.691-51.79H19.995C8.952,0.061,0,9.013,0,20.056s8.952,19.995,19.995,19.995h196.93
	c32.398,0,63.267,13.939,84.691,38.243l64.304,72.95c6.442,7.309,9.992,16.701,9.992,26.444v37.322h-146.66
	c-19.412,0-37.018,10.707-45.947,27.944c-8.928,17.237-7.518,37.794,3.68,53.649c20.944,29.656,43.491,61.579,43.861,62.102
	c3.086,4.358,4.292,9.659,3.393,14.923s-3.794,9.864-8.153,12.951c-3.4,2.408-7.385,3.682-11.522,3.682
	c-6.43,0-12.487-3.094-16.24-8.286l-0.748-1.119c-14.101-21.14-42.094-62.534-71.132-102.247
	c-19.29-26.382-35.689-47.401-48.74-62.472c-21.815-25.193-34.038-34.121-46.71-34.121H19.995C8.952,182.018,0,190.97,0,202.013
	c0,11.043,8.952,19.995,19.995,19.995h7.5c5.274,3.809,23.046,19.974,71.743,87.181c11.768,16.241,23.237,32.555,33.486,47.371
	c-1.048,2.427-1.635,5.102-1.635,7.914v81.591c0,36.323,29.551,65.874,65.874,65.874h249.161c36.323,0,65.874-29.551,65.874-65.874
	c0-11.043-8.952-19.995-19.995-19.995s-19.995,8.952-19.995,19.995c0,14.272-11.611,25.884-25.884,25.884H196.964
	c-14.273,0-25.884-11.611-25.884-25.884v-15.106h232.824c11.043,0,19.995-8.952,19.995-19.995c0-11.043-8.952-19.995-19.995-19.995
	H270.829c1.246-3.41,2.204-6.952,2.829-10.607c2.697-15.794-0.918-31.693-10.174-44.761c-0.389-0.55-22.912-32.439-43.835-62.065
	c-3.722-5.27-1.825-10.278-0.836-12.185c0.989-1.909,3.985-6.347,10.438-6.347h216.874c14.272,0,25.884,11.611,25.884,25.884v65.094
	C472.01,357.022,480.961,365.974,492.005,365.974z"/>
<g>
</g>
<g>
</g>
<g>
</g>
<g>
</g>
<g>
</g>
<g>
</g>
<g>
</g>
<g>
</g>
<g>
</g>
<g>
</g>
<g>
</g>
<g>
</g>
<g>
</g>
<g>
</g>
<g>
</g>
</svg>
