<svg height="512pt" viewBox="0 -10 512 512" width="512pt" xmlns="http://www.w3.org/2000/svg" xmlns:xlink="http://www.w3.org/1999/xlink">
<linearGradient id="a" gradientUnits="userSpaceOnUse" x1="0" x2="512" y1="245.55" y2="245.55">
	<stop  offset="0" style="stop-color:#ebbdbd"/>
	<stop  offset="0.021" style="stop-color:#e99d9b"/>
	<stop  offset="0.293" style="stop-color:#e27c79"/>
	<stop  offset="0.650" style="stop-color:#d95a56"/>
	<stop  offset="0.796" style="stop-color:#cc3333"/>
	<stop  offset="1" style="stop-color:#cc3333"/>
</linearGradient><path d="m450.808594 282.925781-11.453125-58.265625c-3.132813-16.351562-8.542969-28.839844-16.539063-38.171875-10.308594-12.027343-24.765625-18.386719-41.816406-18.386719h-57v-80.101562c0-11.046875-8.953125-20-20-20h-74.242188c-19.683593-40.226562-61.035156-68-108.757812-68-66.71875 0-121 54.28125-121 121v250.101562c0 43.582032 35.039062 79.113282 78.425781 79.957032 8.246094 23.300781 30.488281 40.042968 56.574219 40.042968 26.074219 0 48.304688-16.722656 56.558594-40h123.882812c8.253906 23.277344 30.484375 40 56.558594 40s48.304688-16.722656 56.558594-40h63.441406c11.046875 0 20-8.957031 20-20v-72c0-37.242187-26.234375-68.46875-61.191406-76.175781zm-69.808594-74.824219c6.105469 0 14.464844 0 19.082031 24.132813.003907.03125.011719.066406.019531.101563l9.78125 49.765624h-85.882812v-74zm-260-168.101562c44.664062 0 81 36.335938 81 81s-36.335938 81-81 81-81-36.335938-81-81 36.335938-81 81-81zm14 411.101562c-11.027344 0-20-8.972656-20-20 0-11.03125 8.972656-20 20-20s20 8.96875 20 20c0 11.027344-8.972656 20-20 20zm237 0c-11.027344 0-20-8.972656-20-20 0-11.03125 8.972656-20 20-20s20 8.96875 20 20c0 11.027344-8.972656 20-20 20zm100-40h-43.441406c-8.253906-23.28125-30.484375-40-56.558594-40s-48.304688 16.71875-56.558594 40h-123.882812c-8.253906-23.28125-30.484375-40-56.558594-40-26.058594 0-48.277344 16.703126-56.546875 39.960938-21.339844-.816406-38.453125-18.425781-38.453125-39.960938v-160.292968c21.464844 19.375 49.875 31.191406 81 31.191406 66.71875 0 121-54.28125 121-121 0-4.390625-.242188-8.726562-.699219-13h42.699219v174.101562h-184c-11.046875 0-20 8.953126-20 20 0 11.042969 8.953125 20 20 20h333c1.855469 0 3.640625-.273437 5.34375-.746093 18.914062 2.164062 33.65625 18.261719 33.65625 37.746093zm-371.878906-290.101562v-40c0-11.046875 8.953125-20 20-20s20 8.953125 20 20v20h8c11.046875 0 20 8.953125 20 20s-8.953125 20-20 20h-28c-11.046875 0-20-8.953125-20-20zm0 0" fill="url(#a)"/></svg>