<?xml version="1.0" encoding="iso-8859-1"?>
<!-- Generator: Adobe Illustrator 19.0.0, SVG Export Plug-In . SVG Version: 6.00 Build 0)  -->
<svg version="1.1" id="Capa_1" xmlns="http://www.w3.org/2000/svg" xmlns:xlink="http://www.w3.org/1999/xlink" x="0px" y="0px"
	 viewBox="0 0 512 512" style="enable-background:new 0 0 512 512;" xml:space="preserve">
<linearGradient id="SVGID_1_" gradientUnits="userSpaceOnUse" x1="0" y1="258" x2="512" y2="258" gradientTransform="matrix(1 0 0 -1 0 514)">
	<stop  offset="0" style="stop-color:#ebbdbd"/>
	<stop  offset="0.021" style="stop-color:#e99d9b"/>
	<stop  offset="0.293" style="stop-color:#e27c79"/>
	<stop  offset="0.650" style="stop-color:#d95a56"/>
	<stop  offset="0.796" style="stop-color:#cc3333"/>
	<stop  offset="1" style="stop-color:#cc3333"/>
</linearGradient>
<path style="fill:url(#SVGID_1_);" d="M450.81,259.374l-11.453-58.263c-3.136-16.354-8.546-28.839-16.542-38.171
	c-10.307-12.03-24.766-18.389-41.815-18.389h-67V64.45c0-11.046-8.954-20-20-20H20c-11.046,0-20,8.954-20,20v283.1
	c0,43.585,35.041,79.116,78.427,79.96c8.245,23.299,30.486,40.04,56.573,40.04c26.073,0,48.303-16.722,56.56-40h123.88
	c8.256,23.278,30.487,40,56.56,40s48.303-16.722,56.56-40H492c11.046,0,20-8.954,20-20v-72
	C512,298.311,485.766,267.083,450.81,259.374z M381,184.55c6.104,0,14.463,0,19.081,24.134c0.006,0.033,0.013,0.066,0.019,0.1
	l9.783,49.766H314v-74H381L381,184.55z M135,427.55c-11.028,0-20-8.972-20-20s8.972-20,20-20s20,8.972,20,20
	S146.028,427.55,135,427.55z M372,427.55c-11.028,0-20-8.972-20-20s8.972-20,20-20s20,8.972,20,20S383.028,427.55,372,427.55z
	 M472,387.55h-43.44c-8.256-23.278-30.487-40-56.56-40s-48.303,16.722-56.56,40H191.56c-8.256-23.278-30.487-40-56.56-40
	c-26.058,0-48.279,16.703-56.546,39.961C57.112,386.695,40,369.088,40,347.55V84.45h234v174.1H100c-11.046,0-20,8.954-20,20
	s8.954,20,20,20h333c1.854,0,3.641-0.272,5.345-0.744C457.258,299.97,472,316.067,472,335.55V387.55z"/>
<g>
</g>
<g>
</g>
<g>
</g>
<g>
</g>
<g>
</g>
<g>
</g>
<g>
</g>
<g>
</g>
<g>
</g>
<g>
</g>
<g>
</g>
<g>
</g>
<g>
</g>
<g>
</g>
<g>
</g>
</svg>
