<?xml version="1.0" encoding="iso-8859-1"?>
<!-- Generator: Adobe Illustrator 19.0.0, SVG Export Plug-In . SVG Version: 6.00 Build 0)  -->
<svg version="1.1" id="Capa_1" xmlns="http://www.w3.org/2000/svg" xmlns:xlink="http://www.w3.org/1999/xlink" x="0px" y="0px"
	 viewBox="0 0 462.89 462.89" style="enable-background:new 0 0 462.89 462.89;" xml:space="preserve">
<g>
	
		<linearGradient id="SVGID_1_" gradientUnits="userSpaceOnUse" x1="-15.1762" y1="577.3904" x2="-15.1762" y2="497.2204" gradientTransform="matrix(5.2245 0 0 -5.2245 310.7328 3033.811)">
	<stop  offset="0" style="stop-color:#ebbdbd"/>
	<stop  offset="0.021" style="stop-color:#e99d9b"/>
	<stop  offset="0.293" style="stop-color:#e27c79"/>
	<stop  offset="0.650" style="stop-color:#d95a56"/>
	<stop  offset="0.796" style="stop-color:#cc3333"/>
	<stop  offset="1" style="stop-color:#cc3333"/>
	</linearGradient>
	<path style="fill:url(#SVGID_1_);" d="M447.216,26.122H15.673C6.792,26.122,0,32.914,0,41.796v282.645
		c0,8.882,6.792,15.673,15.673,15.673h146.808v65.306h-20.376c-8.882,0-15.673,6.792-15.673,15.673s6.792,15.673,15.673,15.673
		h178.678c8.882,0,15.673-6.792,15.673-15.673s-6.792-15.673-15.673-15.673h-20.376v-65.306h146.808
		c8.882,0,15.673-6.792,15.673-15.673V41.796C462.89,32.914,456.098,26.122,447.216,26.122z M269.061,405.42h-75.233v-65.306h75.233
		V405.42L269.061,405.42z M431.543,308.767H31.347V57.469h400.196L431.543,308.767L431.543,308.767z"/>
	
		<linearGradient id="SVGID_2_" gradientUnits="userSpaceOnUse" x1="-23.0762" y1="577.3904" x2="-23.0762" y2="497.2204" gradientTransform="matrix(5.2245 0 0 -5.2245 310.7328 3033.811)">
	<stop  offset="0" style="stop-color:#ebbdbd"/>
	<stop  offset="0.021" style="stop-color:#e99d9b"/>
	<stop  offset="0.293" style="stop-color:#e27c79"/>
	<stop  offset="0.650" style="stop-color:#d95a56"/>
	<stop  offset="0.796" style="stop-color:#cc3333"/>
	<stop  offset="1" style="stop-color:#cc3333"/>
	</linearGradient>
	<path style="fill:url(#SVGID_2_);" d="M190.171,228.31c-18.808,0-33.959,15.151-33.959,33.959
		c0,18.808,15.151,33.959,33.959,33.959s33.959-15.151,33.959-33.959C224.131,243.461,208.98,228.31,190.171,228.31z
		 M190.171,264.882c-1.567,0-2.612-1.045-2.612-2.612c0-1.567,1.045-2.612,2.612-2.612s2.612,1.045,2.612,2.612
		C192.784,263.837,191.739,264.882,190.171,264.882z"/>
	
		<linearGradient id="SVGID_3_" gradientUnits="userSpaceOnUse" x1="-5.2762" y1="577.3904" x2="-5.2762" y2="497.2204" gradientTransform="matrix(5.2245 0 0 -5.2245 310.7328 3033.811)">
	<stop  offset="0" style="stop-color:#ebbdbd"/>
	<stop  offset="0.021" style="stop-color:#e99d9b"/>
	<stop  offset="0.293" style="stop-color:#e27c79"/>
	<stop  offset="0.650" style="stop-color:#d95a56"/>
	<stop  offset="0.796" style="stop-color:#cc3333"/>
	<stop  offset="1" style="stop-color:#cc3333"/>
	</linearGradient>
	<path style="fill:url(#SVGID_3_);" d="M283.167,228.31c-18.808,0-33.959,15.151-33.959,33.959
		c0,18.808,15.151,33.959,33.959,33.959c18.808,0,33.959-15.151,33.959-33.959C317.127,243.461,301.975,228.31,283.167,228.31z
		 M283.167,264.882c-1.567,0-2.612-1.045-2.612-2.612c0-1.567,1.045-2.612,2.612-2.612c1.567,0,2.612,1.045,2.612,2.612
		C285.78,263.837,284.735,264.882,283.167,264.882z"/>
	
		<linearGradient id="SVGID_4_" gradientUnits="userSpaceOnUse" x1="-17.3887" y1="577.3904" x2="-17.3887" y2="497.2204" gradientTransform="matrix(5.2245 0 0 -5.2245 310.7328 3033.811)">
	<stop  offset="0" style="stop-color:#ebbdbd"/>
	<stop  offset="0.021" style="stop-color:#e99d9b"/>
	<stop  offset="0.293" style="stop-color:#e27c79"/>
	<stop  offset="0.650" style="stop-color:#d95a56"/>
	<stop  offset="0.796" style="stop-color:#cc3333"/>
	<stop  offset="1" style="stop-color:#cc3333"/>
	</linearGradient>
	<path style="fill:url(#SVGID_4_);" d="M117.029,103.967h23.51l21.943,110.237c1.567,7.314,7.837,12.539,15.151,12.539h126.955
		c7.314,0,13.584-5.224,15.151-12.016l18.286-79.412c1.045-4.702,0-9.404-3.135-13.061c-3.135-3.657-7.314-5.747-12.016-5.747
		H175.02l-6.269-31.347c-1.567-7.314-7.837-12.539-15.151-12.539h-36.571c-8.882,0-15.673,6.792-15.673,15.673
		C101.355,97.175,108.147,103.967,117.029,103.967z M303.02,147.331l-10.971,48.065H191.216l-9.404-48.065H303.02z"/>
</g>
<g>
</g>
<g>
</g>
<g>
</g>
<g>
</g>
<g>
</g>
<g>
</g>
<g>
</g>
<g>
</g>
<g>
</g>
<g>
</g>
<g>
</g>
<g>
</g>
<g>
</g>
<g>
</g>
<g>
</g>
</svg>
