<?xml version="1.0" encoding="iso-8859-1"?>
<!-- Generator: Adobe Illustrator 19.0.0, SVG Export Plug-In . SVG Version: 6.00 Build 0)  -->
<svg version="1.1" id="Capa_1" xmlns="http://www.w3.org/2000/svg" xmlns:xlink="http://www.w3.org/1999/xlink" x="0px" y="0px"
	 viewBox="0 0 512.001 512.001" style="enable-background:new 0 0 512.001 512.001;" xml:space="preserve">
<linearGradient id="SVGID_1_" gradientUnits="userSpaceOnUse" x1="0" y1="258.0006" x2="512.0007" y2="258.0006" gradientTransform="matrix(1 0 0 -1 0 514.0009)">
	<stop  offset="0" style="stop-color:#ebbdbd"/>
	<stop  offset="0.021" style="stop-color:#e99d9b"/>
	<stop  offset="0.293" style="stop-color:#e27c79"/>
	<stop  offset="0.650" style="stop-color:#d95a56"/>
	<stop  offset="0.796" style="stop-color:#cc3333"/>
	<stop  offset="1" style="stop-color:#cc3333"/>
</linearGradient>
<path style="fill:url(#SVGID_1_);" d="M507.519,116.384C503.721,111.712,498.021,109,492,109h-7.208L381.65,5.858
	c-7.811-7.811-20.475-7.811-28.285,0l-43.359,43.359l-43.36-43.359c-7.811-7.811-20.475-7.811-28.285,0L135.219,109h-5.483
	l-1.484-13.632l-0.053-0.438C121.099,40.811,74.583,0,20,0C8.954,0,0,8.954,0,20s8.954,20,20,20
	c34.506,0,63.923,25.749,68.512,59.928l23.775,218.42C91.5,327.785,77,348.724,77,373c0,0.169,0.021,0.332,0.025,0.5
	C77.021,373.668,77,373.831,77,374c0,33.084,26.916,60,60,60h8.157c-2.036,5.967-3.157,12.353-3.157,19c0,32.533,26.468,59,59,59
	s59-26.467,59-59c0-6.647-1.121-13.033-3.157-19h86.314c-2.036,5.967-3.157,12.353-3.157,19c0,32.533,26.468,59,59,59
	s59-26.467,59-59s-26.468-59-59-59H137c-11.028,0-20-8.972-20-20c0-0.169-0.021-0.332-0.025-0.5c0.004-0.168,0.025-0.331,0.025-0.5
	c0-11.028,8.972-20,20-20h255.331c35.503,0,68.085-21.966,83.006-55.962c4.439-10.114-0.161-21.913-10.275-26.352
	c-10.113-4.44-21.913,0.161-26.352,10.275C430.299,300.125,411.661,313,392.331,313h-240.39L134.09,149h333.309l-9.786,46.917
	c-2.255,10.813,4.683,21.407,15.495,23.662c1.378,0.288,2.751,0.425,4.104,0.425c9.271,0,17.59-6.485,19.559-15.92l14.809-71
	C512.808,127.19,511.316,121.056,507.519,116.384z M220,453c0,10.477-8.523,19-19,19s-19-8.523-19-19s8.523-19,19-19
	S220,442.524,220,453z M399,472c-10.477,0-19-8.523-19-19s8.523-19,19-19s19,8.523,19,19S409.477,472,399,472z M367.508,48.284
	L428.223,109H306.792L367.508,48.284z M252.504,48.284l29.217,29.218L250.223,109h-58.435L252.504,48.284z"/>
<g>
</g>
<g>
</g>
<g>
</g>
<g>
</g>
<g>
</g>
<g>
</g>
<g>
</g>
<g>
</g>
<g>
</g>
<g>
</g>
<g>
</g>
<g>
</g>
<g>
</g>
<g>
</g>
<g>
</g>
</svg>
