<svg height="512pt" viewBox="0 -1 512.00125 512" width="512pt" xmlns="http://www.w3.org/2000/svg" xmlns:xlink="http://www.w3.org/1999/xlink">
<linearGradient id="a" gradientUnits="userSpaceOnUse" x1=".001248" x2="512.0013204864" y1="255.492721144" y2="255.492721144">
	<stop  offset="0" style="stop-color:#ebbdbd"/>
	<stop  offset="0.021" style="stop-color:#e99d9b"/>
	<stop  offset="0.293" style="stop-color:#e27c79"/>
	<stop  offset="0.650" style="stop-color:#d95a56"/>
	<stop  offset="0.796" style="stop-color:#cc3333"/>
	<stop  offset="1" style="stop-color:#cc3333"/>
 </linearGradient>
 <path d="m256.507812 216.570312c21.496094 0 38.925782 17.425782 38.925782 38.921876 0 21.496093-17.429688 38.921874-38.925782 38.921874-21.496093 0-38.921874-17.425781-38.921874-38.921874 0-21.496094 17.425781-38.921876 38.921874-38.921876zm0-74.851562c62.738282 0 113.773438 51.039062 113.773438 113.773438 0 62.734374-51.035156 113.773437-113.773438 113.773437-62.734374 0-113.773437-51.039063-113.773437-113.773437 0-62.734376 51.039063-113.773438 113.773437-113.773438zm0 39.921875c-40.722656 0-73.851562 33.128906-73.851562 73.851563 0 40.722656 33.128906 73.855468 73.851562 73.855468 40.722657 0 73.855469-33.132812 73.855469-73.855468 0-40.722657-33.132812-73.851563-73.855469-73.851563zm-153.300781 209.769531c48.484375 34.480469 101.300781 52.707032 152.742188 52.707032 65.976562 0 131.535156-27.421876 184.59375-77.207032 8.039062-7.546875 8.441406-20.175781.898437-28.214844-7.542968-8.039062-20.171875-8.441406-28.210937-.898437-26.429688 24.796875-82.007813 66.398437-157.28125 66.398437-99.507813 0-178.480469-79.699218-209.457031-126.792968-8.753907-13.308594-8.753907-30.507813 0-43.820313 30.976562-47.09375 109.949218-126.792969 209.457031-126.792969 99.472656 0 177.96875 79.78125 208.667969 126.917969 8.617187 13.234375 8.617187 30.335938 0 43.566407-6.015626 9.238281-3.402344 21.605468 5.835937 27.621093 9.234375 6.015625 21.601563 3.402344 27.617187-5.835937 17.234376-26.464844 17.234376-60.667969 0-87.132813-10.320312-15.851562-39.707031-56.5625-89.515624-92.203125-48.328126-34.578125-101.101563-52.855468-152.609376-52.855468-51.4375 0-104.253906 18.226562-152.738281 52.707031-50.039062 35.585937-79.65625 76.242187-90.066406 92.070312-17.519531 26.636719-17.519531 61.058594 0 87.695313 10.414063 15.828125 40.03125 56.484375 90.066406 92.070312zm388.832031-2.183594c-11.023437 0-19.957031 8.9375-19.957031 19.960938v40.917969c0 11.554687-9.421875 20.957031-21.003906 20.957031h-40.875c-11.023437 0-19.960937 8.9375-19.960937 19.960938 0 11.023437 8.9375 19.960937 19.960937 19.960937h40.875c33.59375 0 60.921875-27.308594 60.921875-60.878906v-40.917969c0-11.023438-8.933594-19.960938-19.960938-19.960938zm2.339844-370.679687c-11.585937-11.960937-26.964844-18.546875-43.300781-18.546875h-40.875c-11.023437 0-19.960937 8.9375-19.960937 19.960938 0 11.023437 8.9375 19.960937 19.960937 19.960937h40.875c11.386719 0 21.003906 10.054687 21.003906 21.957031v39.917969c0 11.027344 8.933594 19.960937 19.957031 19.960937 11.027344 0 19.960938-8.933593 19.960938-19.960937v-39.917969c0-16.214844-6.257812-31.601562-17.621094-43.332031zm-390.566406 452.515625h-41.875c-11.578125 0-21-9.402344-21-20.957031v-39.921875c0-11.023438-8.9375-19.957032-19.960938-19.957032-11.023437 0-19.960937 8.933594-19.960937 19.957032v39.921875c0 33.570312 27.332031 60.878906 60.921875 60.878906h41.875c11.023438 0 19.960938-8.9375 19.960938-19.960937 0-11.023438-8.9375-19.960938-19.960938-19.960938zm-82.835938-348.304688c11.023438 0 19.960938-8.9375 19.960938-19.960937v-40.917969c0-11.902344 9.617188-21.957031 21-21.957031h40.878906c11.023438 0 19.957032-8.9375 19.957032-19.960937 0-11.023438-8.933594-19.960938-19.957032-19.960938h-40.878906c-16.332031 0-31.710938 6.585938-43.296875 18.546875-11.367187 11.730469-17.625 27.117187-17.625 43.332031v40.917969c0 11.023437 8.9375 19.960937 19.960937 19.960937zm159.683594-82.835937c11.023438 0 19.960938-8.9375 19.960938-19.960937 0-11.023438-8.9375-19.960938-19.960938-19.960938-11.023437 0-19.960937 8.9375-19.960937 19.960938 0 11.023437 8.9375 19.960937 19.960937 19.960937zm152.695313 0c11.023437 0 19.960937-8.9375 19.960937-19.960937 0-11.023438-8.9375-19.960938-19.960937-19.960938-11.023438 0-19.960938 8.9375-19.960938 19.960938 0 11.023437 8.9375 19.960937 19.960938 19.960937zm-75.847657 0c11.023438 0 19.960938-8.9375 19.960938-19.960937 0-11.023438-8.9375-19.960938-19.960938-19.960938-11.023437 0-19.960937 8.9375-19.960937 19.960938 0 11.023437 8.9375 19.960937 19.960937 19.960937zm-76.847656 431.140625c-11.023437 0-19.960937 8.9375-19.960937 19.960938 0 11.023437 8.9375 19.960937 19.960937 19.960937 11.023438 0 19.960938-8.9375 19.960938-19.960937 0-11.023438-8.9375-19.960938-19.960938-19.960938zm152.695313 0c-11.023438 0-19.960938 8.9375-19.960938 19.960938 0 11.023437 8.9375 19.960937 19.960938 19.960937 11.023437 0 19.960937-8.9375 19.960937-19.960937 0-11.023438-8.9375-19.960938-19.960937-19.960938zm-75.847657 0c-11.023437 0-19.960937 8.9375-19.960937 19.960938 0 11.023437 8.9375 19.960937 19.960937 19.960937 11.023438 0 19.960938-8.9375 19.960938-19.960937 0-11.023438-8.9375-19.960938-19.960938-19.960938zm0 0" fill="url(#a)"/></svg>